# xmcd CD Database Entry
#
# Track frame offsets:
# 150
# 20140
# 40135
# 57762
# 71682
# 87812
# 104725
# 123820
# 136600
# 149065
# 174425
#
# Disc length: 2756 seconds
#
# Revision: 1
# Processed by: cddbd v1.4PL0 Copyright (c) Steve Scherf et al.
# Submitted via: tcd 2.0b
#
DISCID=990ac20b
DTITLE=Eric Clapton - Backtrackin' [CD1]
DYEAR=1900
DGENRE=
TTITLE0=I Shot The Sheriff
TTITLE1=Knockin' On Heaven's Door
TTITLE2=Lay Down Sally
TTITLE3=Promises
TTITLE4=Swing Low Sweet Chariot
TTITLE5=Wonderful Tonight
TTITLE6=Sunshine Of Your Love
TTITLE7=Tales Of Brave Ulysses
TTITLE8=Badge
TTITLE9=Little Wing
TTITLE10=Layla
EXTD=
EXTT0=
EXTT1=
EXTT2=
EXTT3=
EXTT4=
EXTT5=
EXTT6=
EXTT7=
EXTT8=
EXTT9=
EXTT10=
PLAYORDER=
